<svg version="1.1" xmlns="http://www.w3.org/2000/svg" xmlns:xlink="http://www.w3.org/1999/xlink" width="625" height="310"><defs/><g><text fill="#eeeeee" stroke="none" font-family="Arial" font-size="24px" font-style="normal" font-weight="normal" text-decoration="none" x="0" y="0">UNREGISTERED</text><text fill="#eeeeee" stroke="none" font-family="Arial" font-size="24px" font-style="normal" font-weight="normal" text-decoration="none" x="0" y="30">UNREGISTERED</text><text fill="#eeeeee" stroke="none" font-family="Arial" font-size="24px" font-style="normal" font-weight="normal" text-decoration="none" x="0" y="60">UNREGISTERED</text><text fill="#eeeeee" stroke="none" font-family="Arial" font-size="24px" font-style="normal" font-weight="normal" text-decoration="none" x="0" y="90">UNREGISTERED</text><text fill="#eeeeee" stroke="none" font-family="Arial" font-size="24px" font-style="normal" font-weight="normal" text-decoration="none" x="0" y="120">UNREGISTERED</text><text fill="#eeeeee" stroke="none" font-family="Arial" font-size="24px" font-style="normal" font-weight="normal" text-decoration="none" x="0" y="150">UNREGISTERED</text><text fill="#eeeeee" stroke="none" font-family="Arial" font-size="24px" font-style="normal" font-weight="normal" text-decoration="none" x="0" y="180">UNREGISTERED</text><text fill="#eeeeee" stroke="none" font-family="Arial" font-size="24px" font-style="normal" font-weight="normal" text-decoration="none" x="0" y="210">UNREGISTERED</text><text fill="#eeeeee" stroke="none" font-family="Arial" font-size="24px" font-style="normal" font-weight="normal" text-decoration="none" x="0" y="240">UNREGISTERED</text><text fill="#eeeeee" stroke="none" font-family="Arial" font-size="24px" font-style="normal" font-weight="normal" text-decoration="none" x="0" y="270">UNREGISTERED</text><text fill="#eeeeee" stroke="none" font-family="Arial" font-size="24px" font-style="normal" font-weight="normal" text-decoration="none" x="0" y="300">UNREGISTERED</text><text fill="#eeeeee" stroke="none" font-family="Arial" font-size="24px" font-style="normal" font-weight="normal" text-decoration="none" x="200" y="0">UNREGISTERED</text><text fill="#eeeeee" stroke="none" font-family="Arial" font-size="24px" font-style="normal" font-weight="normal" text-decoration="none" x="200" y="30">UNREGISTERED</text><text fill="#eeeeee" stroke="none" font-family="Arial" font-size="24px" font-style="normal" font-weight="normal" text-decoration="none" x="200" y="60">UNREGISTERED</text><text fill="#eeeeee" stroke="none" font-family="Arial" font-size="24px" font-style="normal" font-weight="normal" text-decoration="none" x="200" y="90">UNREGISTERED</text><text fill="#eeeeee" stroke="none" font-family="Arial" font-size="24px" font-style="normal" font-weight="normal" text-decoration="none" x="200" y="120">UNREGISTERED</text><text fill="#eeeeee" stroke="none" font-family="Arial" font-size="24px" font-style="normal" font-weight="normal" text-decoration="none" x="200" y="150">UNREGISTERED</text><text fill="#eeeeee" stroke="none" font-family="Arial" font-size="24px" font-style="normal" font-weight="normal" text-decoration="none" x="200" y="180">UNREGISTERED</text><text fill="#eeeeee" stroke="none" font-family="Arial" font-size="24px" font-style="normal" font-weight="normal" text-decoration="none" x="200" y="210">UNREGISTERED</text><text fill="#eeeeee" stroke="none" font-family="Arial" font-size="24px" font-style="normal" font-weight="normal" text-decoration="none" x="200" y="240">UNREGISTERED</text><text fill="#eeeeee" stroke="none" font-family="Arial" font-size="24px" font-style="normal" font-weight="normal" text-decoration="none" x="200" y="270">UNREGISTERED</text><text fill="#eeeeee" stroke="none" font-family="Arial" font-size="24px" font-style="normal" font-weight="normal" text-decoration="none" x="200" y="300">UNREGISTERED</text><text fill="#eeeeee" stroke="none" font-family="Arial" font-size="24px" font-style="normal" font-weight="normal" text-decoration="none" x="400" y="0">UNREGISTERED</text><text fill="#eeeeee" stroke="none" font-family="Arial" font-size="24px" font-style="normal" font-weight="normal" text-decoration="none" x="400" y="30">UNREGISTERED</text><text fill="#eeeeee" stroke="none" font-family="Arial" font-size="24px" font-style="normal" font-weight="normal" text-decoration="none" x="400" y="60">UNREGISTERED</text><text fill="#eeeeee" stroke="none" font-family="Arial" font-size="24px" font-style="normal" font-weight="normal" text-decoration="none" x="400" y="90">UNREGISTERED</text><text fill="#eeeeee" stroke="none" font-family="Arial" font-size="24px" font-style="normal" font-weight="normal" text-decoration="none" x="400" y="120">UNREGISTERED</text><text fill="#eeeeee" stroke="none" font-family="Arial" font-size="24px" font-style="normal" font-weight="normal" text-decoration="none" x="400" y="150">UNREGISTERED</text><text fill="#eeeeee" stroke="none" font-family="Arial" font-size="24px" font-style="normal" font-weight="normal" text-decoration="none" x="400" y="180">UNREGISTERED</text><text fill="#eeeeee" stroke="none" font-family="Arial" font-size="24px" font-style="normal" font-weight="normal" text-decoration="none" x="400" y="210">UNREGISTERED</text><text fill="#eeeeee" stroke="none" font-family="Arial" font-size="24px" font-style="normal" font-weight="normal" text-decoration="none" x="400" y="240">UNREGISTERED</text><text fill="#eeeeee" stroke="none" font-family="Arial" font-size="24px" font-style="normal" font-weight="normal" text-decoration="none" x="400" y="270">UNREGISTERED</text><text fill="#eeeeee" stroke="none" font-family="Arial" font-size="24px" font-style="normal" font-weight="normal" text-decoration="none" x="400" y="300">UNREGISTERED</text><text fill="#eeeeee" stroke="none" font-family="Arial" font-size="24px" font-style="normal" font-weight="normal" text-decoration="none" x="600" y="0">UNREGISTERED</text><text fill="#eeeeee" stroke="none" font-family="Arial" font-size="24px" font-style="normal" font-weight="normal" text-decoration="none" x="600" y="30">UNREGISTERED</text><text fill="#eeeeee" stroke="none" font-family="Arial" font-size="24px" font-style="normal" font-weight="normal" text-decoration="none" x="600" y="60">UNREGISTERED</text><text fill="#eeeeee" stroke="none" font-family="Arial" font-size="24px" font-style="normal" font-weight="normal" text-decoration="none" x="600" y="90">UNREGISTERED</text><text fill="#eeeeee" stroke="none" font-family="Arial" font-size="24px" font-style="normal" font-weight="normal" text-decoration="none" x="600" y="120">UNREGISTERED</text><text fill="#eeeeee" stroke="none" font-family="Arial" font-size="24px" font-style="normal" font-weight="normal" text-decoration="none" x="600" y="150">UNREGISTERED</text><text fill="#eeeeee" stroke="none" font-family="Arial" font-size="24px" font-style="normal" font-weight="normal" text-decoration="none" x="600" y="180">UNREGISTERED</text><text fill="#eeeeee" stroke="none" font-family="Arial" font-size="24px" font-style="normal" font-weight="normal" text-decoration="none" x="600" y="210">UNREGISTERED</text><text fill="#eeeeee" stroke="none" font-family="Arial" font-size="24px" font-style="normal" font-weight="normal" text-decoration="none" x="600" y="240">UNREGISTERED</text><text fill="#eeeeee" stroke="none" font-family="Arial" font-size="24px" font-style="normal" font-weight="normal" text-decoration="none" x="600" y="270">UNREGISTERED</text><text fill="#eeeeee" stroke="none" font-family="Arial" font-size="24px" font-style="normal" font-weight="normal" text-decoration="none" x="600" y="300">UNREGISTERED</text><g transform="translate(-38,-110) scale(1,1)"><path fill="#ffffff" stroke="none" d="M 66.94206516335227 137.68 C 66.94206516335227 132.886167936 70.82790748829773 129 75.621337890625 129 C 80.41476829295227 129 84.30061061789773 132.886167936 84.30061061789773 137.68 C 84.30061061789773 142.47383206400002 80.41476829295227 146.36 75.621337890625 146.36 C 70.82790748829773 146.36 66.94206516335227 142.47383206400002 66.94206516335227 137.68 Z"/></g><g transform="translate(-38,-110) scale(1,1)"><path fill="none" stroke="#000000" d="M 66.94206516335227 137.68 C 66.94206516335227 132.886167936 70.82790748829773 129 75.621337890625 129 C 80.41476829295227 129 84.30061061789773 132.886167936 84.30061061789773 137.68 C 84.30061061789773 142.47383206400002 80.41476829295227 146.36 75.621337890625 146.36 C 70.82790748829773 146.36 66.94206516335227 142.47383206400002 66.94206516335227 137.68 Z" stroke-miterlimit="10"/></g><g transform="translate(-38,-110) scale(1,1)"><path fill="none" stroke="#000000" d="M 75.621337890625 146.36 L 75.621337890625 163.64" stroke-miterlimit="10"/></g><g transform="translate(-38,-110) scale(1,1)"><path fill="none" stroke="#000000" d="M 66.43151970880682 152.84 L 84.81115607244318 152.84" stroke-miterlimit="10"/></g><g transform="translate(-38,-110) scale(1,1)"><path fill="none" stroke="#000000" d="M 75.621337890625 163.64 L 62.857701526988635 181" stroke-miterlimit="10"/></g><g transform="translate(-38,-110) scale(1,1)"><path fill="none" stroke="#000000" d="M 75.621337890625 163.64 L 88.38497425426137 181" stroke-miterlimit="10"/></g><g transform="translate(-38,-110) scale(1,1)"><g><path fill="none" stroke="none"/><text fill="#000000" stroke="none" font-family="Arial" font-size="13px" font-style="normal" font-weight="bold" text-decoration="none" x="55.03271484375" y="201.5">visiteur</text></g></g><g transform="translate(-38,-110) scale(1,1)"><path fill="#C0C0C0" stroke="none" d="M 223 144 C 223 134.6111584 270.010096 127 328 127 C 385.989904 127 433 134.6111584 433 144 C 433 153.3888416 385.989904 161 328 161 C 270.010096 161 223 153.3888416 223 144 Z" opacity="0.2"/></g><g transform="translate(-38,-110) scale(1,1)"><path fill="#ffffff" stroke="none" d="M 216 137 C 216 127.6111584 263.010096 120 321 120 C 378.989904 120 426 127.6111584 426 137 C 426 146.3888416 378.989904 154 321 154 C 263.010096 154 216 146.3888416 216 137 Z"/></g><g transform="translate(-38,-110) scale(1,1)"><path fill="none" stroke="#000000" d="M 216 137 C 216 127.6111584 263.010096 120 321 120 C 378.989904 120 426 127.6111584 426 137 C 426 146.3888416 378.989904 154 321 154 C 263.010096 154 216 146.3888416 216 137 Z" stroke-miterlimit="10"/></g><g transform="translate(-38,-110) scale(1,1)"><g><path fill="none" stroke="none"/><text fill="#000000" stroke="none" font-family="Arial" font-size="13px" font-style="normal" font-weight="bold" text-decoration="none" x="276.1982421875" y="144">crée un compte</text></g></g><g transform="translate(-38,-110) scale(1,1)"><path fill="none" stroke="#000000" d="M 104 163 L 215 150" stroke-miterlimit="10"/></g><g transform="translate(-38,-110) scale(1,1)"><path fill="#ffffff" stroke="none" d="M 144.40935031960228 225.68 C 144.40935031960228 220.886167936 148.29519264454774 217 153.088623046875 217 C 157.88205344920226 217 161.76789577414772 220.886167936 161.76789577414772 225.68 C 161.76789577414772 230.47383206400002 157.88205344920226 234.36 153.088623046875 234.36 C 148.29519264454774 234.36 144.40935031960228 230.47383206400002 144.40935031960228 225.68 Z"/></g><g transform="translate(-38,-110) scale(1,1)"><path fill="none" stroke="#000000" d="M 144.40935031960228 225.68 C 144.40935031960228 220.886167936 148.29519264454774 217 153.088623046875 217 C 157.88205344920226 217 161.76789577414772 220.886167936 161.76789577414772 225.68 C 161.76789577414772 230.47383206400002 157.88205344920226 234.36 153.088623046875 234.36 C 148.29519264454774 234.36 144.40935031960228 230.47383206400002 144.40935031960228 225.68 Z" stroke-miterlimit="10"/></g><g transform="translate(-38,-110) scale(1,1)"><path fill="none" stroke="#000000" d="M 153.088623046875 234.36 L 153.088623046875 251.64" stroke-miterlimit="10"/></g><g transform="translate(-38,-110) scale(1,1)"><path fill="none" stroke="#000000" d="M 143.89880486505683 240.84 L 162.27844122869317 240.84" stroke-miterlimit="10"/></g><g transform="translate(-38,-110) scale(1,1)"><path fill="none" stroke="#000000" d="M 153.088623046875 251.64 L 140.32498668323865 269" stroke-miterlimit="10"/></g><g transform="translate(-38,-110) scale(1,1)"><path fill="none" stroke="#000000" d="M 153.088623046875 251.64 L 165.85225941051135 269" stroke-miterlimit="10"/></g><g transform="translate(-38,-110) scale(1,1)"><g><path fill="none" stroke="none"/><text fill="#000000" stroke="none" font-family="Arial" font-size="13px" font-style="normal" font-weight="bold" text-decoration="none" x="137.91455078125" y="289.5">client</text></g></g><g transform="translate(-38,-110) scale(1,1)"><path fill="#C0C0C0" stroke="none" d="M 231 208 C 231 198.6111584 278.4578112 191 337 191 C 395.5421888 191 443 198.6111584 443 208 C 443 217.3888416 395.5421888 225 337 225 C 278.4578112 225 231 217.3888416 231 208 Z" opacity="0.2"/></g><g transform="translate(-38,-110) scale(1,1)"><path fill="#ffffff" stroke="none" d="M 224 201 C 224 191.6111584 271.4578112 184 330 184 C 388.5421888 184 436 191.6111584 436 201 C 436 210.3888416 388.5421888 218 330 218 C 271.4578112 218 224 210.3888416 224 201 Z"/></g><g transform="translate(-38,-110) scale(1,1)"><path fill="none" stroke="#000000" d="M 224 201 C 224 191.6111584 271.4578112 184 330 184 C 388.5421888 184 436 191.6111584 436 201 C 436 210.3888416 388.5421888 218 330 218 C 271.4578112 218 224 210.3888416 224 201 Z" stroke-miterlimit="10"/></g><g transform="translate(-38,-110) scale(1,1)"><g><path fill="none" stroke="none"/><text fill="#000000" stroke="none" font-family="Arial" font-size="13px" font-style="normal" font-weight="bold" text-decoration="none" x="267.86279296875" y="208">réserver une livraison</text></g></g><g transform="translate(-38,-110) scale(1,1)"><path fill="none" stroke="#000000" d="M 179 247 L 271 219" stroke-miterlimit="10"/></g><g transform="translate(-38,-110) scale(1,1)"><path fill="#ffffff" stroke="none" d="M 72.40935031960227 281.68 C 72.40935031960227 276.886167936 76.29519264454773 273 81.088623046875 273 C 85.88205344920227 273 89.76789577414773 276.886167936 89.76789577414773 281.68 C 89.76789577414773 286.473832064 85.88205344920227 290.36 81.088623046875 290.36 C 76.29519264454773 290.36 72.40935031960227 286.473832064 72.40935031960227 281.68 Z"/></g><g transform="translate(-38,-110) scale(1,1)"><path fill="none" stroke="#000000" d="M 72.40935031960227 281.68 C 72.40935031960227 276.886167936 76.29519264454773 273 81.088623046875 273 C 85.88205344920227 273 89.76789577414773 276.886167936 89.76789577414773 281.68 C 89.76789577414773 286.473832064 85.88205344920227 290.36 81.088623046875 290.36 C 76.29519264454773 290.36 72.40935031960227 286.473832064 72.40935031960227 281.68 Z" stroke-miterlimit="10"/></g><g transform="translate(-38,-110) scale(1,1)"><path fill="none" stroke="#000000" d="M 81.088623046875 290.36 L 81.088623046875 307.64" stroke-miterlimit="10"/></g><g transform="translate(-38,-110) scale(1,1)"><path fill="none" stroke="#000000" d="M 71.89880486505682 296.84 L 90.27844122869318 296.84" stroke-miterlimit="10"/></g><g transform="translate(-38,-110) scale(1,1)"><path fill="none" stroke="#000000" d="M 81.088623046875 307.64 L 68.32498668323863 325" stroke-miterlimit="10"/></g><g transform="translate(-38,-110) scale(1,1)"><path fill="none" stroke="#000000" d="M 81.088623046875 307.64 L 93.85225941051137 325" stroke-miterlimit="10"/></g><g transform="translate(-38,-110) scale(1,1)"><g><path fill="none" stroke="none"/><text fill="#000000" stroke="none" font-family="Arial" font-size="13px" font-style="normal" font-weight="bold" text-decoration="none" x="63.385009765625" y="345.5">admin</text></g></g><g transform="translate(-38,-110) scale(1,1)"><path fill="#C0C0C0" stroke="none" d="M 191 320 C 191 310.6111584 251.8892672 303 327 303 C 402.1107328 303 463 310.6111584 463 320 C 463 329.3888416 402.1107328 337 327 337 C 251.8892672 337 191 329.3888416 191 320 Z" opacity="0.2"/></g><g transform="translate(-38,-110) scale(1,1)"><path fill="#ffffff" stroke="none" d="M 184 313 C 184 303.6111584 244.8892672 296 320 296 C 395.1107328 296 456 303.6111584 456 313 C 456 322.3888416 395.1107328 330 320 330 C 244.8892672 330 184 322.3888416 184 313 Z"/></g><g transform="translate(-38,-110) scale(1,1)"><path fill="none" stroke="#000000" d="M 184 313 C 184 303.6111584 244.8892672 296 320 296 C 395.1107328 296 456 303.6111584 456 313 C 456 322.3888416 395.1107328 330 320 330 C 244.8892672 330 184 322.3888416 184 313 Z" stroke-miterlimit="10"/></g><g transform="translate(-38,-110) scale(1,1)"><g><path fill="none" stroke="none"/><text fill="#000000" stroke="none" font-family="Arial" font-size="13px" font-style="normal" font-weight="bold" text-decoration="none" x="235.820556640625" y="320">poster un service de livraison</text></g></g><g transform="translate(-38,-110) scale(1,1)"><path fill="none" stroke="#000000" d="M 107 311 L 183 312" stroke-miterlimit="10"/></g><g transform="translate(-38,-110) scale(1,1)"><path fill="#C0C0C0" stroke="none" d="M 391 392 C 391 382.6111584 429.5035072 375 477 375 C 524.4964927999999 375 563 382.6111584 563 392 C 563 401.3888416 524.4964927999999 409 477 409 C 429.5035072 409 391 401.3888416 391 392 Z" opacity="0.2"/></g><g transform="translate(-38,-110) scale(1,1)"><path fill="#ffffff" stroke="none" d="M 384 385 C 384 375.6111584 422.5035072 368 470 368 C 517.4964927999999 368 556 375.6111584 556 385 C 556 394.3888416 517.4964927999999 402 470 402 C 422.5035072 402 384 394.3888416 384 385 Z"/></g><g transform="translate(-38,-110) scale(1,1)"><path fill="none" stroke="#000000" d="M 384 385 C 384 375.6111584 422.5035072 368 470 368 C 517.4964927999999 368 556 375.6111584 556 385 C 556 394.3888416 517.4964927999999 402 470 402 C 422.5035072 402 384 394.3888416 384 385 Z" stroke-miterlimit="10"/></g><g transform="translate(-38,-110) scale(1,1)"><g><path fill="none" stroke="none"/><text fill="#000000" stroke="none" font-family="Arial" font-size="13px" font-style="normal" font-weight="bold" text-decoration="none" x="419.063232421875" y="392">livraison des colis</text></g></g><g transform="translate(-38,-110) scale(1,1)"><path fill="none" stroke="#000000" d="M 433 367 L 358 331" stroke-miterlimit="10"/></g><g transform="translate(-38,-110) scale(1,1)"><path fill="#FFFFFF" stroke="none" d="M 379.96694964455827 332.2054556455722 L 358 331 L 372.68059319424685 347.3853649170543"/></g><g transform="translate(-38,-110) scale(1,1)"><path fill="none" stroke="#000000" d="M 379.96694964455827 332.2054556455722 L 358 331 L 372.68059319424685 347.3853649170543 L 379.96694964455827 332.2054556455722" stroke-miterlimit="10"/></g><g transform="translate(-38,-110) scale(1,1)"><path fill="#C0C0C0" stroke="none" d="M 215 272 C 215 262.6111584 264.9202448 255 326.5 255 C 388.0797552 255 438 262.6111584 438 272 C 438 281.3888416 388.0797552 289 326.5 289 C 264.9202448 289 215 281.3888416 215 272 Z" opacity="0.2"/></g><g transform="translate(-38,-110) scale(1,1)"><path fill="#ffffff" stroke="none" d="M 208 265 C 208 255.6111584 257.9202448 248 319.5 248 C 381.0797552 248 431 255.6111584 431 265 C 431 274.3888416 381.0797552 282 319.5 282 C 257.9202448 282 208 274.3888416 208 265 Z"/></g><g transform="translate(-38,-110) scale(1,1)"><path fill="none" stroke="#000000" d="M 208 265 C 208 255.6111584 257.9202448 248 319.5 248 C 381.0797552 248 431 255.6111584 431 265 C 431 274.3888416 381.0797552 282 319.5 282 C 257.9202448 282 208 274.3888416 208 265 Z" stroke-miterlimit="10"/></g><g transform="translate(-38,-110) scale(1,1)"><g><path fill="none" stroke="none"/><text fill="#000000" stroke="none" font-family="Arial" font-size="13px" font-style="normal" font-weight="bold" text-decoration="none" x="268.563232421875" y="272">livraison des colis</text></g></g><g transform="translate(-38,-110) scale(1,1)"><path fill="none" stroke="#000000" d="M 322 247 L 327 219" stroke-miterlimit="10"/></g><g transform="translate(-38,-110) scale(1,1)"><path fill="#FFFFFF" stroke="none" d="M 331.7149245133823 240.4888223696206 L 327 219 L 315.1390630789234 237.52884711346724"/></g><g transform="translate(-38,-110) scale(1,1)"><path fill="none" stroke="#000000" d="M 331.7149245133823 240.4888223696206 L 327 219 L 315.1390630789234 237.52884711346724 L 331.7149245133823 240.4888223696206" stroke-miterlimit="10"/></g><g transform="translate(-38,-110) scale(1,1)"><path fill="#C0C0C0" stroke="none" d="M 447 272 C 447 262.6111584 494.6816688 255 553.5 255 C 612.3183312 255 660 262.6111584 660 272 C 660 281.3888416 612.3183312 289 553.5 289 C 494.6816688 289 447 281.3888416 447 272 Z" opacity="0.2"/></g><g transform="translate(-38,-110) scale(1,1)"><path fill="#ffffff" stroke="none" d="M 440 265 C 440 255.6111584 487.6816688 248 546.5 248 C 605.3183312 248 653 255.6111584 653 265 C 653 274.3888416 605.3183312 282 546.5 282 C 487.6816688 282 440 274.3888416 440 265 Z"/></g><g transform="translate(-38,-110) scale(1,1)"><path fill="none" stroke="#000000" d="M 440 265 C 440 255.6111584 487.6816688 248 546.5 248 C 605.3183312 248 653 255.6111584 653 265 C 653 274.3888416 605.3183312 282 546.5 282 C 487.6816688 282 440 274.3888416 440 265 Z" stroke-miterlimit="10"/></g><g transform="translate(-38,-110) scale(1,1)"><g><path fill="none" stroke="none"/><text fill="#000000" stroke="none" font-family="Arial" font-size="13px" font-style="normal" font-weight="bold" text-decoration="none" x="481.4619140625" y="272">livraison des personne</text></g></g><g transform="translate(-38,-110) scale(1,1)"><path fill="none" stroke="#000000" d="M 485 247 L 391 219" stroke-miterlimit="10"/></g><g transform="translate(-38,-110) scale(1,1)"><path fill="#FFFFFF" stroke="none" d="M 412.88296170141865 216.7337283538279 L 391 219 L 408.0760866605377 232.87109456249956"/></g><g transform="translate(-38,-110) scale(1,1)"><path fill="none" stroke="#000000" d="M 412.88296170141865 216.7337283538279 L 391 219 L 408.0760866605377 232.87109456249956 L 412.88296170141865 216.7337283538279" stroke-miterlimit="10"/></g><g transform="translate(-38,-110) scale(1,1)"><path fill="#C0C0C0" stroke="none" d="M 111 400 C 111 390.6111584 160.9202448 383 222.5 383 C 284.0797552 383 334 390.6111584 334 400 C 334 409.3888416 284.0797552 417 222.5 417 C 160.9202448 417 111 409.3888416 111 400 Z" opacity="0.2"/></g><g transform="translate(-38,-110) scale(1,1)"><path fill="#ffffff" stroke="none" d="M 104 393 C 104 383.6111584 153.9202448 376 215.5 376 C 277.0797552 376 327 383.6111584 327 393 C 327 402.3888416 277.0797552 410 215.5 410 C 153.9202448 410 104 402.3888416 104 393 Z"/></g><g transform="translate(-38,-110) scale(1,1)"><path fill="none" stroke="#000000" d="M 104 393 C 104 383.6111584 153.9202448 376 215.5 376 C 277.0797552 376 327 383.6111584 327 393 C 327 402.3888416 277.0797552 410 215.5 410 C 153.9202448 410 104 402.3888416 104 393 Z" stroke-miterlimit="10"/></g><g transform="translate(-38,-110) scale(1,1)"><g><path fill="none" stroke="none"/><text fill="#000000" stroke="none" font-family="Arial" font-size="13px" font-style="normal" font-weight="bold" text-decoration="none" x="147.2119140625" y="400">livraison des personnes</text></g></g><g transform="translate(-38,-110) scale(1,1)"><path fill="none" stroke="#000000" d="M 239 375 L 296 331" stroke-miterlimit="10"/></g><g transform="translate(-38,-110) scale(1,1)"><path fill="#FFFFFF" stroke="none" d="M 285.0551198778771 350.08427622710275 L 296 331 L 274.7661799121515 336.75542218059456"/></g><g transform="translate(-38,-110) scale(1,1)"><path fill="none" stroke="#000000" d="M 285.0551198778771 350.08427622710275 L 296 331 L 274.7661799121515 336.75542218059456 L 285.0551198778771 350.08427622710275" stroke-miterlimit="10"/></g></g></svg>