<svg version="1.1" xmlns="http://www.w3.org/2000/svg" xmlns:xlink="http://www.w3.org/1999/xlink" width="875" height="622"><defs/><g><text fill="#eeeeee" stroke="none" font-family="Arial" font-size="24px" font-style="normal" font-weight="normal" text-decoration="none" x="0" y="0">UNREGISTERED</text><text fill="#eeeeee" stroke="none" font-family="Arial" font-size="24px" font-style="normal" font-weight="normal" text-decoration="none" x="0" y="30">UNREGISTERED</text><text fill="#eeeeee" stroke="none" font-family="Arial" font-size="24px" font-style="normal" font-weight="normal" text-decoration="none" x="0" y="60">UNREGISTERED</text><text fill="#eeeeee" stroke="none" font-family="Arial" font-size="24px" font-style="normal" font-weight="normal" text-decoration="none" x="0" y="90">UNREGISTERED</text><text fill="#eeeeee" stroke="none" font-family="Arial" font-size="24px" font-style="normal" font-weight="normal" text-decoration="none" x="0" y="120">UNREGISTERED</text><text fill="#eeeeee" stroke="none" font-family="Arial" font-size="24px" font-style="normal" font-weight="normal" text-decoration="none" x="0" y="150">UNREGISTERED</text><text fill="#eeeeee" stroke="none" font-family="Arial" font-size="24px" font-style="normal" font-weight="normal" text-decoration="none" x="0" y="180">UNREGISTERED</text><text fill="#eeeeee" stroke="none" font-family="Arial" font-size="24px" font-style="normal" font-weight="normal" text-decoration="none" x="0" y="210">UNREGISTERED</text><text fill="#eeeeee" stroke="none" font-family="Arial" font-size="24px" font-style="normal" font-weight="normal" text-decoration="none" x="0" y="240">UNREGISTERED</text><text fill="#eeeeee" stroke="none" font-family="Arial" font-size="24px" font-style="normal" font-weight="normal" text-decoration="none" x="0" y="270">UNREGISTERED</text><text fill="#eeeeee" stroke="none" font-family="Arial" font-size="24px" font-style="normal" font-weight="normal" text-decoration="none" x="0" y="300">UNREGISTERED</text><text fill="#eeeeee" stroke="none" font-family="Arial" font-size="24px" font-style="normal" font-weight="normal" text-decoration="none" x="0" y="330">UNREGISTERED</text><text fill="#eeeeee" stroke="none" font-family="Arial" font-size="24px" font-style="normal" font-weight="normal" text-decoration="none" x="0" y="360">UNREGISTERED</text><text fill="#eeeeee" stroke="none" font-family="Arial" font-size="24px" font-style="normal" font-weight="normal" text-decoration="none" x="0" y="390">UNREGISTERED</text><text fill="#eeeeee" stroke="none" font-family="Arial" font-size="24px" font-style="normal" font-weight="normal" text-decoration="none" x="0" y="420">UNREGISTERED</text><text fill="#eeeeee" stroke="none" font-family="Arial" font-size="24px" font-style="normal" font-weight="normal" text-decoration="none" x="0" y="450">UNREGISTERED</text><text fill="#eeeeee" stroke="none" font-family="Arial" font-size="24px" font-style="normal" font-weight="normal" text-decoration="none" x="0" y="480">UNREGISTERED</text><text fill="#eeeeee" stroke="none" font-family="Arial" font-size="24px" font-style="normal" font-weight="normal" text-decoration="none" x="0" y="510">UNREGISTERED</text><text fill="#eeeeee" stroke="none" font-family="Arial" font-size="24px" font-style="normal" font-weight="normal" text-decoration="none" x="0" y="540">UNREGISTERED</text><text fill="#eeeeee" stroke="none" font-family="Arial" font-size="24px" font-style="normal" font-weight="normal" text-decoration="none" x="0" y="570">UNREGISTERED</text><text fill="#eeeeee" stroke="none" font-family="Arial" font-size="24px" font-style="normal" font-weight="normal" text-decoration="none" x="0" y="600">UNREGISTERED</text><text fill="#eeeeee" stroke="none" font-family="Arial" font-size="24px" font-style="normal" font-weight="normal" text-decoration="none" x="200" y="0">UNREGISTERED</text><text fill="#eeeeee" stroke="none" font-family="Arial" font-size="24px" font-style="normal" font-weight="normal" text-decoration="none" x="200" y="30">UNREGISTERED</text><text fill="#eeeeee" stroke="none" font-family="Arial" font-size="24px" font-style="normal" font-weight="normal" text-decoration="none" x="200" y="60">UNREGISTERED</text><text fill="#eeeeee" stroke="none" font-family="Arial" font-size="24px" font-style="normal" font-weight="normal" text-decoration="none" x="200" y="90">UNREGISTERED</text><text fill="#eeeeee" stroke="none" font-family="Arial" font-size="24px" font-style="normal" font-weight="normal" text-decoration="none" x="200" y="120">UNREGISTERED</text><text fill="#eeeeee" stroke="none" font-family="Arial" font-size="24px" font-style="normal" font-weight="normal" text-decoration="none" x="200" y="150">UNREGISTERED</text><text fill="#eeeeee" stroke="none" font-family="Arial" font-size="24px" font-style="normal" font-weight="normal" text-decoration="none" x="200" y="180">UNREGISTERED</text><text fill="#eeeeee" stroke="none" font-family="Arial" font-size="24px" font-style="normal" font-weight="normal" text-decoration="none" x="200" y="210">UNREGISTERED</text><text fill="#eeeeee" stroke="none" font-family="Arial" font-size="24px" font-style="normal" font-weight="normal" text-decoration="none" x="200" y="240">UNREGISTERED</text><text fill="#eeeeee" stroke="none" font-family="Arial" font-size="24px" font-style="normal" font-weight="normal" text-decoration="none" x="200" y="270">UNREGISTERED</text><text fill="#eeeeee" stroke="none" font-family="Arial" font-size="24px" font-style="normal" font-weight="normal" text-decoration="none" x="200" y="300">UNREGISTERED</text><text fill="#eeeeee" stroke="none" font-family="Arial" font-size="24px" font-style="normal" font-weight="normal" text-decoration="none" x="200" y="330">UNREGISTERED</text><text fill="#eeeeee" stroke="none" font-family="Arial" font-size="24px" font-style="normal" font-weight="normal" text-decoration="none" x="200" y="360">UNREGISTERED</text><text fill="#eeeeee" stroke="none" font-family="Arial" font-size="24px" font-style="normal" font-weight="normal" text-decoration="none" x="200" y="390">UNREGISTERED</text><text fill="#eeeeee" stroke="none" font-family="Arial" font-size="24px" font-style="normal" font-weight="normal" text-decoration="none" x="200" y="420">UNREGISTERED</text><text fill="#eeeeee" stroke="none" font-family="Arial" font-size="24px" font-style="normal" font-weight="normal" text-decoration="none" x="200" y="450">UNREGISTERED</text><text fill="#eeeeee" stroke="none" font-family="Arial" font-size="24px" font-style="normal" font-weight="normal" text-decoration="none" x="200" y="480">UNREGISTERED</text><text fill="#eeeeee" stroke="none" font-family="Arial" font-size="24px" font-style="normal" font-weight="normal" text-decoration="none" x="200" y="510">UNREGISTERED</text><text fill="#eeeeee" stroke="none" font-family="Arial" font-size="24px" font-style="normal" font-weight="normal" text-decoration="none" x="200" y="540">UNREGISTERED</text><text fill="#eeeeee" stroke="none" font-family="Arial" font-size="24px" font-style="normal" font-weight="normal" text-decoration="none" x="200" y="570">UNREGISTERED</text><text fill="#eeeeee" stroke="none" font-family="Arial" font-size="24px" font-style="normal" font-weight="normal" text-decoration="none" x="200" y="600">UNREGISTERED</text><text fill="#eeeeee" stroke="none" font-family="Arial" font-size="24px" font-style="normal" font-weight="normal" text-decoration="none" x="400" y="0">UNREGISTERED</text><text fill="#eeeeee" stroke="none" font-family="Arial" font-size="24px" font-style="normal" font-weight="normal" text-decoration="none" x="400" y="30">UNREGISTERED</text><text fill="#eeeeee" stroke="none" font-family="Arial" font-size="24px" font-style="normal" font-weight="normal" text-decoration="none" x="400" y="60">UNREGISTERED</text><text fill="#eeeeee" stroke="none" font-family="Arial" font-size="24px" font-style="normal" font-weight="normal" text-decoration="none" x="400" y="90">UNREGISTERED</text><text fill="#eeeeee" stroke="none" font-family="Arial" font-size="24px" font-style="normal" font-weight="normal" text-decoration="none" x="400" y="120">UNREGISTERED</text><text fill="#eeeeee" stroke="none" font-family="Arial" font-size="24px" font-style="normal" font-weight="normal" text-decoration="none" x="400" y="150">UNREGISTERED</text><text fill="#eeeeee" stroke="none" font-family="Arial" font-size="24px" font-style="normal" font-weight="normal" text-decoration="none" x="400" y="180">UNREGISTERED</text><text fill="#eeeeee" stroke="none" font-family="Arial" font-size="24px" font-style="normal" font-weight="normal" text-decoration="none" x="400" y="210">UNREGISTERED</text><text fill="#eeeeee" stroke="none" font-family="Arial" font-size="24px" font-style="normal" font-weight="normal" text-decoration="none" x="400" y="240">UNREGISTERED</text><text fill="#eeeeee" stroke="none" font-family="Arial" font-size="24px" font-style="normal" font-weight="normal" text-decoration="none" x="400" y="270">UNREGISTERED</text><text fill="#eeeeee" stroke="none" font-family="Arial" font-size="24px" font-style="normal" font-weight="normal" text-decoration="none" x="400" y="300">UNREGISTERED</text><text fill="#eeeeee" stroke="none" font-family="Arial" font-size="24px" font-style="normal" font-weight="normal" text-decoration="none" x="400" y="330">UNREGISTERED</text><text fill="#eeeeee" stroke="none" font-family="Arial" font-size="24px" font-style="normal" font-weight="normal" text-decoration="none" x="400" y="360">UNREGISTERED</text><text fill="#eeeeee" stroke="none" font-family="Arial" font-size="24px" font-style="normal" font-weight="normal" text-decoration="none" x="400" y="390">UNREGISTERED</text><text fill="#eeeeee" stroke="none" font-family="Arial" font-size="24px" font-style="normal" font-weight="normal" text-decoration="none" x="400" y="420">UNREGISTERED</text><text fill="#eeeeee" stroke="none" font-family="Arial" font-size="24px" font-style="normal" font-weight="normal" text-decoration="none" x="400" y="450">UNREGISTERED</text><text fill="#eeeeee" stroke="none" font-family="Arial" font-size="24px" font-style="normal" font-weight="normal" text-decoration="none" x="400" y="480">UNREGISTERED</text><text fill="#eeeeee" stroke="none" font-family="Arial" font-size="24px" font-style="normal" font-weight="normal" text-decoration="none" x="400" y="510">UNREGISTERED</text><text fill="#eeeeee" stroke="none" font-family="Arial" font-size="24px" font-style="normal" font-weight="normal" text-decoration="none" x="400" y="540">UNREGISTERED</text><text fill="#eeeeee" stroke="none" font-family="Arial" font-size="24px" font-style="normal" font-weight="normal" text-decoration="none" x="400" y="570">UNREGISTERED</text><text fill="#eeeeee" stroke="none" font-family="Arial" font-size="24px" font-style="normal" font-weight="normal" text-decoration="none" x="400" y="600">UNREGISTERED</text><text fill="#eeeeee" stroke="none" font-family="Arial" font-size="24px" font-style="normal" font-weight="normal" text-decoration="none" x="600" y="0">UNREGISTERED</text><text fill="#eeeeee" stroke="none" font-family="Arial" font-size="24px" font-style="normal" font-weight="normal" text-decoration="none" x="600" y="30">UNREGISTERED</text><text fill="#eeeeee" stroke="none" font-family="Arial" font-size="24px" font-style="normal" font-weight="normal" text-decoration="none" x="600" y="60">UNREGISTERED</text><text fill="#eeeeee" stroke="none" font-family="Arial" font-size="24px" font-style="normal" font-weight="normal" text-decoration="none" x="600" y="90">UNREGISTERED</text><text fill="#eeeeee" stroke="none" font-family="Arial" font-size="24px" font-style="normal" font-weight="normal" text-decoration="none" x="600" y="120">UNREGISTERED</text><text fill="#eeeeee" stroke="none" font-family="Arial" font-size="24px" font-style="normal" font-weight="normal" text-decoration="none" x="600" y="150">UNREGISTERED</text><text fill="#eeeeee" stroke="none" font-family="Arial" font-size="24px" font-style="normal" font-weight="normal" text-decoration="none" x="600" y="180">UNREGISTERED</text><text fill="#eeeeee" stroke="none" font-family="Arial" font-size="24px" font-style="normal" font-weight="normal" text-decoration="none" x="600" y="210">UNREGISTERED</text><text fill="#eeeeee" stroke="none" font-family="Arial" font-size="24px" font-style="normal" font-weight="normal" text-decoration="none" x="600" y="240">UNREGISTERED</text><text fill="#eeeeee" stroke="none" font-family="Arial" font-size="24px" font-style="normal" font-weight="normal" text-decoration="none" x="600" y="270">UNREGISTERED</text><text fill="#eeeeee" stroke="none" font-family="Arial" font-size="24px" font-style="normal" font-weight="normal" text-decoration="none" x="600" y="300">UNREGISTERED</text><text fill="#eeeeee" stroke="none" font-family="Arial" font-size="24px" font-style="normal" font-weight="normal" text-decoration="none" x="600" y="330">UNREGISTERED</text><text fill="#eeeeee" stroke="none" font-family="Arial" font-size="24px" font-style="normal" font-weight="normal" text-decoration="none" x="600" y="360">UNREGISTERED</text><text fill="#eeeeee" stroke="none" font-family="Arial" font-size="24px" font-style="normal" font-weight="normal" text-decoration="none" x="600" y="390">UNREGISTERED</text><text fill="#eeeeee" stroke="none" font-family="Arial" font-size="24px" font-style="normal" font-weight="normal" text-decoration="none" x="600" y="420">UNREGISTERED</text><text fill="#eeeeee" stroke="none" font-family="Arial" font-size="24px" font-style="normal" font-weight="normal" text-decoration="none" x="600" y="450">UNREGISTERED</text><text fill="#eeeeee" stroke="none" font-family="Arial" font-size="24px" font-style="normal" font-weight="normal" text-decoration="none" x="600" y="480">UNREGISTERED</text><text fill="#eeeeee" stroke="none" font-family="Arial" font-size="24px" font-style="normal" font-weight="normal" text-decoration="none" x="600" y="510">UNREGISTERED</text><text fill="#eeeeee" stroke="none" font-family="Arial" font-size="24px" font-style="normal" font-weight="normal" text-decoration="none" x="600" y="540">UNREGISTERED</text><text fill="#eeeeee" stroke="none" font-family="Arial" font-size="24px" font-style="normal" font-weight="normal" text-decoration="none" x="600" y="570">UNREGISTERED</text><text fill="#eeeeee" stroke="none" font-family="Arial" font-size="24px" font-style="normal" font-weight="normal" text-decoration="none" x="600" y="600">UNREGISTERED</text><text fill="#eeeeee" stroke="none" font-family="Arial" font-size="24px" font-style="normal" font-weight="normal" text-decoration="none" x="800" y="0">UNREGISTERED</text><text fill="#eeeeee" stroke="none" font-family="Arial" font-size="24px" font-style="normal" font-weight="normal" text-decoration="none" x="800" y="30">UNREGISTERED</text><text fill="#eeeeee" stroke="none" font-family="Arial" font-size="24px" font-style="normal" font-weight="normal" text-decoration="none" x="800" y="60">UNREGISTERED</text><text fill="#eeeeee" stroke="none" font-family="Arial" font-size="24px" font-style="normal" font-weight="normal" text-decoration="none" x="800" y="90">UNREGISTERED</text><text fill="#eeeeee" stroke="none" font-family="Arial" font-size="24px" font-style="normal" font-weight="normal" text-decoration="none" x="800" y="120">UNREGISTERED</text><text fill="#eeeeee" stroke="none" font-family="Arial" font-size="24px" font-style="normal" font-weight="normal" text-decoration="none" x="800" y="150">UNREGISTERED</text><text fill="#eeeeee" stroke="none" font-family="Arial" font-size="24px" font-style="normal" font-weight="normal" text-decoration="none" x="800" y="180">UNREGISTERED</text><text fill="#eeeeee" stroke="none" font-family="Arial" font-size="24px" font-style="normal" font-weight="normal" text-decoration="none" x="800" y="210">UNREGISTERED</text><text fill="#eeeeee" stroke="none" font-family="Arial" font-size="24px" font-style="normal" font-weight="normal" text-decoration="none" x="800" y="240">UNREGISTERED</text><text fill="#eeeeee" stroke="none" font-family="Arial" font-size="24px" font-style="normal" font-weight="normal" text-decoration="none" x="800" y="270">UNREGISTERED</text><text fill="#eeeeee" stroke="none" font-family="Arial" font-size="24px" font-style="normal" font-weight="normal" text-decoration="none" x="800" y="300">UNREGISTERED</text><text fill="#eeeeee" stroke="none" font-family="Arial" font-size="24px" font-style="normal" font-weight="normal" text-decoration="none" x="800" y="330">UNREGISTERED</text><text fill="#eeeeee" stroke="none" font-family="Arial" font-size="24px" font-style="normal" font-weight="normal" text-decoration="none" x="800" y="360">UNREGISTERED</text><text fill="#eeeeee" stroke="none" font-family="Arial" font-size="24px" font-style="normal" font-weight="normal" text-decoration="none" x="800" y="390">UNREGISTERED</text><text fill="#eeeeee" stroke="none" font-family="Arial" font-size="24px" font-style="normal" font-weight="normal" text-decoration="none" x="800" y="420">UNREGISTERED</text><text fill="#eeeeee" stroke="none" font-family="Arial" font-size="24px" font-style="normal" font-weight="normal" text-decoration="none" x="800" y="450">UNREGISTERED</text><text fill="#eeeeee" stroke="none" font-family="Arial" font-size="24px" font-style="normal" font-weight="normal" text-decoration="none" x="800" y="480">UNREGISTERED</text><text fill="#eeeeee" stroke="none" font-family="Arial" font-size="24px" font-style="normal" font-weight="normal" text-decoration="none" x="800" y="510">UNREGISTERED</text><text fill="#eeeeee" stroke="none" font-family="Arial" font-size="24px" font-style="normal" font-weight="normal" text-decoration="none" x="800" y="540">UNREGISTERED</text><text fill="#eeeeee" stroke="none" font-family="Arial" font-size="24px" font-style="normal" font-weight="normal" text-decoration="none" x="800" y="570">UNREGISTERED</text><text fill="#eeeeee" stroke="none" font-family="Arial" font-size="24px" font-style="normal" font-weight="normal" text-decoration="none" x="800" y="600">UNREGISTERED</text><g transform="translate(-30,-6) scale(1,1)"><path fill="#ffffff" stroke="none" d="M 112.40935031960228 257.68 C 112.40935031960228 252.886167936 116.29519264454774 249 121.088623046875 249 C 125.88205344920226 249 129.76789577414772 252.886167936 129.76789577414772 257.68 C 129.76789577414772 262.473832064 125.88205344920226 266.36 121.088623046875 266.36 C 116.29519264454774 266.36 112.40935031960228 262.473832064 112.40935031960228 257.68 Z"/></g><g transform="translate(-30,-6) scale(1,1)"><path fill="none" stroke="#000000" d="M 112.40935031960228 257.68 C 112.40935031960228 252.886167936 116.29519264454774 249 121.088623046875 249 C 125.88205344920226 249 129.76789577414772 252.886167936 129.76789577414772 257.68 C 129.76789577414772 262.473832064 125.88205344920226 266.36 121.088623046875 266.36 C 116.29519264454774 266.36 112.40935031960228 262.473832064 112.40935031960228 257.68 Z" stroke-miterlimit="10"/></g><g transform="translate(-30,-6) scale(1,1)"><path fill="none" stroke="#000000" d="M 121.088623046875 266.36 L 121.088623046875 283.64" stroke-miterlimit="10"/></g><g transform="translate(-30,-6) scale(1,1)"><path fill="none" stroke="#000000" d="M 111.89880486505683 272.84 L 130.27844122869317 272.84" stroke-miterlimit="10"/></g><g transform="translate(-30,-6) scale(1,1)"><path fill="none" stroke="#000000" d="M 121.088623046875 283.64 L 108.32498668323865 301" stroke-miterlimit="10"/></g><g transform="translate(-30,-6) scale(1,1)"><path fill="none" stroke="#000000" d="M 121.088623046875 283.64 L 133.85225941051135 301" stroke-miterlimit="10"/></g><g transform="translate(-30,-6) scale(1,1)"><g><path fill="none" stroke="none"/><text fill="#000000" stroke="none" font-family="Arial" font-size="13px" font-style="normal" font-weight="bold" text-decoration="none" x="105.91455078125" y="321.5">client</text></g></g><g transform="translate(-30,-6) scale(1,1)"><path fill="#ffffff" stroke="none" d="M 58.22160617897727 337.68 C 58.22160617897727 332.886167936 62.107448503922726 329 66.90087890625 329 C 71.69430930857727 329 75.58015163352273 332.886167936 75.58015163352273 337.68 C 75.58015163352273 342.473832064 71.69430930857727 346.36 66.90087890625 346.36 C 62.107448503922726 346.36 58.22160617897727 342.473832064 58.22160617897727 337.68 Z"/></g><g transform="translate(-30,-6) scale(1,1)"><path fill="none" stroke="#000000" d="M 58.22160617897727 337.68 C 58.22160617897727 332.886167936 62.107448503922726 329 66.90087890625 329 C 71.69430930857727 329 75.58015163352273 332.886167936 75.58015163352273 337.68 C 75.58015163352273 342.473832064 71.69430930857727 346.36 66.90087890625 346.36 C 62.107448503922726 346.36 58.22160617897727 342.473832064 58.22160617897727 337.68 Z" stroke-miterlimit="10"/></g><g transform="translate(-30,-6) scale(1,1)"><path fill="none" stroke="#000000" d="M 66.90087890625 346.36 L 66.90087890625 363.64" stroke-miterlimit="10"/></g><g transform="translate(-30,-6) scale(1,1)"><path fill="none" stroke="#000000" d="M 57.71106072443182 352.84 L 76.09069708806818 352.84" stroke-miterlimit="10"/></g><g transform="translate(-30,-6) scale(1,1)"><path fill="none" stroke="#000000" d="M 66.90087890625 363.64 L 54.137242542613635 381" stroke-miterlimit="10"/></g><g transform="translate(-30,-6) scale(1,1)"><path fill="none" stroke="#000000" d="M 66.90087890625 363.64 L 79.66451526988637 381" stroke-miterlimit="10"/></g><g transform="translate(-30,-6) scale(1,1)"><g><path fill="none" stroke="none"/><text fill="#000000" stroke="none" font-family="Arial" font-size="13px" font-style="normal" font-weight="bold" text-decoration="none" x="46.305908203125" y="401.5">société</text></g></g><g transform="translate(-30,-6) scale(1,1)"><path fill="#ffffff" stroke="none" d="M 64.40935031960227 513.6800000000001 C 64.40935031960227 508.88616793600005 68.29519264454773 505 73.088623046875 505 C 77.88205344920227 505 81.76789577414773 508.88616793600005 81.76789577414773 513.6800000000001 C 81.76789577414773 518.473832064 77.88205344920227 522.36 73.088623046875 522.36 C 68.29519264454773 522.36 64.40935031960227 518.473832064 64.40935031960227 513.6800000000001 Z"/></g><g transform="translate(-30,-6) scale(1,1)"><path fill="none" stroke="#000000" d="M 64.40935031960227 513.6800000000001 C 64.40935031960227 508.88616793600005 68.29519264454773 505 73.088623046875 505 C 77.88205344920227 505 81.76789577414773 508.88616793600005 81.76789577414773 513.6800000000001 C 81.76789577414773 518.473832064 77.88205344920227 522.36 73.088623046875 522.36 C 68.29519264454773 522.36 64.40935031960227 518.473832064 64.40935031960227 513.6800000000001 Z" stroke-miterlimit="10"/></g><g transform="translate(-30,-6) scale(1,1)"><path fill="none" stroke="#000000" d="M 73.088623046875 522.36 L 73.088623046875 539.64" stroke-miterlimit="10"/></g><g transform="translate(-30,-6) scale(1,1)"><path fill="none" stroke="#000000" d="M 63.89880486505682 528.84 L 82.27844122869318 528.84" stroke-miterlimit="10"/></g><g transform="translate(-30,-6) scale(1,1)"><path fill="none" stroke="#000000" d="M 73.088623046875 539.64 L 60.324986683238635 557" stroke-miterlimit="10"/></g><g transform="translate(-30,-6) scale(1,1)"><path fill="none" stroke="#000000" d="M 73.088623046875 539.64 L 85.85225941051137 557" stroke-miterlimit="10"/></g><g transform="translate(-30,-6) scale(1,1)"><g><path fill="none" stroke="none"/><text fill="#000000" stroke="none" font-family="Arial" font-size="13px" font-style="normal" font-weight="bold" text-decoration="none" x="55.385009765625" y="577.5">admin</text></g></g><g transform="translate(-30,-6) scale(1,1)"><path fill="#C0C0C0" stroke="none" d="M 327 40 C 327 30.6111584 355.6537728 23 391 23 C 426.3462272 23 455 30.6111584 455 40 C 455 49.3888416 426.3462272 57 391 57 C 355.6537728 57 327 49.3888416 327 40 Z" opacity="0.2"/></g><g transform="translate(-30,-6) scale(1,1)"><path fill="#ffffff" stroke="none" d="M 320 33 C 320 23.6111584 348.6537728 16 384 16 C 419.3462272 16 448 23.6111584 448 33 C 448 42.3888416 419.3462272 50 384 50 C 348.6537728 50 320 42.3888416 320 33 Z"/></g><g transform="translate(-30,-6) scale(1,1)"><path fill="none" stroke="#000000" d="M 320 33 C 320 23.6111584 348.6537728 16 384 16 C 419.3462272 16 448 23.6111584 448 33 C 448 42.3888416 419.3462272 50 384 50 C 348.6537728 50 320 42.3888416 320 33 Z" stroke-miterlimit="10"/></g><g transform="translate(-30,-6) scale(1,1)"><g><path fill="none" stroke="none"/><text fill="#000000" stroke="none" font-family="Arial" font-size="13px" font-style="normal" font-weight="bold" text-decoration="none" x="346.069580078125" y="40">creer compte</text></g></g><g transform="translate(-30,-6) scale(1,1)"><path fill="#C0C0C0" stroke="none" d="M 295 104 C 295 94.6111584 345.1441024 87 407 87 C 468.8558976 87 519 94.6111584 519 104 C 519 113.3888416 468.8558976 121 407 121 C 345.1441024 121 295 113.3888416 295 104 Z" opacity="0.2"/></g><g transform="translate(-30,-6) scale(1,1)"><path fill="#ffffff" stroke="none" d="M 288 97 C 288 87.6111584 338.1441024 80 400 80 C 461.8558976 80 512 87.6111584 512 97 C 512 106.3888416 461.8558976 114 400 114 C 338.1441024 114 288 106.3888416 288 97 Z"/></g><g transform="translate(-30,-6) scale(1,1)"><path fill="none" stroke="#000000" d="M 288 97 C 288 87.6111584 338.1441024 80 400 80 C 461.8558976 80 512 87.6111584 512 97 C 512 106.3888416 461.8558976 114 400 114 C 338.1441024 114 288 106.3888416 288 97 Z" stroke-miterlimit="10"/></g><g transform="translate(-30,-6) scale(1,1)"><g><path fill="none" stroke="none"/><text fill="#000000" stroke="none" font-family="Arial" font-size="13px" font-style="normal" font-weight="bold" text-decoration="none" x="338.945068359375" y="104">consulter les voitures</text></g></g><g transform="translate(-30,-6) scale(1,1)"><path fill="#C0C0C0" stroke="none" d="M 407 408 C 407 398.6111584 455.5770992 391 515.5 391 C 575.4229008 391 624 398.6111584 624 408 C 624 417.3888416 575.4229008 425 515.5 425 C 455.5770992 425 407 417.3888416 407 408 Z" opacity="0.2"/></g><g transform="translate(-30,-6) scale(1,1)"><path fill="#ffffff" stroke="none" d="M 400 401 C 400 391.6111584 448.5770992 384 508.5 384 C 568.4229008 384 617 391.6111584 617 401 C 617 410.3888416 568.4229008 418 508.5 418 C 448.5770992 418 400 410.3888416 400 401 Z"/></g><g transform="translate(-30,-6) scale(1,1)"><path fill="none" stroke="#000000" d="M 400 401 C 400 391.6111584 448.5770992 384 508.5 384 C 568.4229008 384 617 391.6111584 617 401 C 617 410.3888416 568.4229008 418 508.5 418 C 448.5770992 418 400 410.3888416 400 401 Z" stroke-miterlimit="10"/></g><g transform="translate(-30,-6) scale(1,1)"><g><path fill="none" stroke="none"/><text fill="#000000" stroke="none" font-family="Arial" font-size="13px" font-style="normal" font-weight="bold" text-decoration="none" x="442.017822265625" y="408">gestion de ses voitures</text></g></g><g transform="translate(-30,-6) scale(1,1)"><path fill="none" stroke="#000000" d="M 95 369 L 399 393" stroke-miterlimit="10"/></g><g transform="translate(-30,-6) scale(1,1)"><path fill="#C0C0C0" stroke="none" d="M 471 488 C 471 478.6111584 504.57864 471 546 471 C 587.42136 471 621 478.6111584 621 488 C 621 497.3888416 587.42136 505 546 505 C 504.57864 505 471 497.3888416 471 488 Z" opacity="0.2"/></g><g transform="translate(-30,-6) scale(1,1)"><path fill="#ffffff" stroke="none" d="M 464 481 C 464 471.6111584 497.57864 464 539 464 C 580.42136 464 614 471.6111584 614 481 C 614 490.3888416 580.42136 498 539 498 C 497.57864 498 464 490.3888416 464 481 Z"/></g><g transform="translate(-30,-6) scale(1,1)"><path fill="none" stroke="#000000" d="M 464 481 C 464 471.6111584 497.57864 464 539 464 C 580.42136 464 614 471.6111584 614 481 C 614 490.3888416 580.42136 498 539 498 C 497.57864 498 464 490.3888416 464 481 Z" stroke-miterlimit="10"/></g><g transform="translate(-30,-6) scale(1,1)"><g><path fill="none" stroke="none"/><text fill="#000000" stroke="none" font-family="Arial" font-size="13px" font-style="normal" font-weight="bold" text-decoration="none" x="494.5537109375" y="488">ajout de voiture</text></g></g><g transform="translate(-30,-6) scale(1,1)"><path fill="none" stroke="#000000" d="M 532 463 L 515 419" stroke-miterlimit="10"/></g><g transform="translate(-30,-6) scale(1,1)"><path fill="#FFFFFF" stroke="none" d="M 530.1785020060253 434.9252339654112 L 515 419 L 514.4719807677894 440.9936626256387"/></g><g transform="translate(-30,-6) scale(1,1)"><path fill="none" stroke="#000000" d="M 530.1785020060253 434.9252339654112 L 515 419 L 514.4719807677894 440.9936626256387 L 530.1785020060253 434.9252339654112" stroke-miterlimit="10"/></g><g transform="translate(-30,-6) scale(1,1)"><path fill="#C0C0C0" stroke="none" d="M 375 344 C 375 334.6111584 421.5623808 327 479 327 C 536.4376192 327 583 334.6111584 583 344 C 583 353.3888416 536.4376192 361 479 361 C 421.5623808 361 375 353.3888416 375 344 Z" opacity="0.2"/></g><g transform="translate(-30,-6) scale(1,1)"><path fill="#ffffff" stroke="none" d="M 368 337 C 368 327.6111584 414.5623808 320 472 320 C 529.4376192 320 576 327.6111584 576 337 C 576 346.3888416 529.4376192 354 472 354 C 414.5623808 354 368 346.3888416 368 337 Z"/></g><g transform="translate(-30,-6) scale(1,1)"><path fill="none" stroke="#000000" d="M 368 337 C 368 327.6111584 414.5623808 320 472 320 C 529.4376192 320 576 327.6111584 576 337 C 576 346.3888416 529.4376192 354 472 354 C 414.5623808 354 368 346.3888416 368 337 Z" stroke-miterlimit="10"/></g><g transform="translate(-30,-6) scale(1,1)"><g><path fill="none" stroke="none"/><text fill="#000000" stroke="none" font-family="Arial" font-size="13px" font-style="normal" font-weight="bold" text-decoration="none" x="409.13916015625" y="344">consulter ses voitures</text></g></g><g transform="translate(-30,-6) scale(1,1)"><path fill="none" stroke="#000000" d="M 95 365 L 367 345" stroke-miterlimit="10"/></g><g transform="translate(-30,-6) scale(1,1)"><path fill="#C0C0C0" stroke="none" d="M 239 544 C 239 534.6111584 339.0643472 527 462.5 527 C 585.9356528 527 686 534.6111584 686 544 C 686 553.3888416 585.9356528 561 462.5 561 C 339.0643472 561 239 553.3888416 239 544 Z" opacity="0.2"/></g><g transform="translate(-30,-6) scale(1,1)"><path fill="#ffffff" stroke="none" d="M 232 537 C 232 527.6111584 332.0643472 520 455.5 520 C 578.9356528 520 679 527.6111584 679 537 C 679 546.3888416 578.9356528 554 455.5 554 C 332.0643472 554 232 546.3888416 232 537 Z"/></g><g transform="translate(-30,-6) scale(1,1)"><path fill="none" stroke="#000000" d="M 232 537 C 232 527.6111584 332.0643472 520 455.5 520 C 578.9356528 520 679 527.6111584 679 537 C 679 546.3888416 578.9356528 554 455.5 554 C 332.0643472 554 232 546.3888416 232 537 Z" stroke-miterlimit="10"/></g><g transform="translate(-30,-6) scale(1,1)"><g><path fill="none" stroke="none"/><text fill="#000000" stroke="none" font-family="Arial" font-size="13px" font-style="normal" font-weight="bold" text-decoration="none" x="311.322509765625" y="544">accepter une demande de compte de type société</text></g></g><g transform="translate(-30,-6) scale(1,1)"><path fill="none" stroke="#000000" d="M 72 327 L 92 200" stroke-miterlimit="10"/></g><g transform="translate(-30,-6) scale(1,1)"><path fill="#FFFFFF" stroke="none" d="M 97.15466649795921 221.38759952156428 L 92 200 L 80.5215829804618 218.76821629046233"/></g><g transform="translate(-30,-6) scale(1,1)"><path fill="none" stroke="#000000" d="M 97.15466649795921 221.38759952156428 L 92 200 L 80.5215829804618 218.76821629046233 L 97.15466649795921 221.38759952156428" stroke-miterlimit="10"/></g><g transform="translate(-30,-6) scale(1,1)"><path fill="none" stroke="#000000" d="M 114 247 L 106 200" stroke-miterlimit="10"/></g><g transform="translate(-30,-6) scale(1,1)"><path fill="#FFFFFF" stroke="none" d="M 117.7102438679991 218.62445136244258 L 106 200 L 101.11091699414816 221.44986870267255"/></g><g transform="translate(-30,-6) scale(1,1)"><path fill="none" stroke="#000000" d="M 117.7102438679991 218.62445136244258 L 106 200 L 101.11091699414816 221.44986870267255 L 117.7102438679991 218.62445136244258" stroke-miterlimit="10"/></g><g transform="translate(-30,-6) scale(1,1)"><path fill="#C0C0C0" stroke="none" d="M 335 256 C 335 246.6111584 374.6227952 239 423.5 239 C 472.3772048 239 512 246.6111584 512 256 C 512 265.3888416 472.3772048 273 423.5 273 C 374.6227952 273 335 265.3888416 335 256 Z" opacity="0.2"/></g><g transform="translate(-30,-6) scale(1,1)"><path fill="#ffffff" stroke="none" d="M 328 249 C 328 239.6111584 367.6227952 232 416.5 232 C 465.3772048 232 505 239.6111584 505 249 C 505 258.3888416 465.3772048 266 416.5 266 C 367.6227952 266 328 258.3888416 328 249 Z"/></g><g transform="translate(-30,-6) scale(1,1)"><path fill="none" stroke="#000000" d="M 328 249 C 328 239.6111584 367.6227952 232 416.5 232 C 465.3772048 232 505 239.6111584 505 249 C 505 258.3888416 465.3772048 266 416.5 266 C 367.6227952 266 328 258.3888416 328 249 Z" stroke-miterlimit="10"/></g><g transform="translate(-30,-6) scale(1,1)"><g><path fill="none" stroke="none"/><text fill="#000000" stroke="none" font-family="Arial" font-size="13px" font-style="normal" font-weight="bold" text-decoration="none" x="363.02099609375" y="256">allouer une voiture</text></g></g><g transform="translate(-30,-6) scale(1,1)"><path fill="none" stroke="#000000" d="M 147 284 L 327 260" stroke-miterlimit="10"/></g><g transform="translate(-30,-6) scale(1,1)"><path fill="#C0C0C0" stroke="none" d="M 775 344 C 775 334.6111584 803.4299152 327 838.5 327 C 873.5700848 327 902 334.6111584 902 344 C 902 353.3888416 873.5700848 361 838.5 361 C 803.4299152 361 775 353.3888416 775 344 Z" opacity="0.2"/></g><g transform="translate(-30,-6) scale(1,1)"><path fill="#ffffff" stroke="none" d="M 768 337 C 768 327.6111584 796.4299152 320 831.5 320 C 866.5700848 320 895 327.6111584 895 337 C 895 346.3888416 866.5700848 354 831.5 354 C 796.4299152 354 768 346.3888416 768 337 Z"/></g><g transform="translate(-30,-6) scale(1,1)"><path fill="none" stroke="#000000" d="M 768 337 C 768 327.6111584 796.4299152 320 831.5 320 C 866.5700848 320 895 327.6111584 895 337 C 895 346.3888416 866.5700848 354 831.5 354 C 796.4299152 354 768 346.3888416 768 337 Z" stroke-miterlimit="10"/></g><g transform="translate(-30,-6) scale(1,1)"><g><path fill="none" stroke="none"/><text fill="#000000" stroke="none" font-family="Arial" font-size="13px" font-style="normal" font-weight="bold" text-decoration="none" x="794.8486328125" y="344">s'authentifier</text></g></g><g transform="translate(-30,-6) scale(1,1)"><path fill="none" stroke="#000000" d="M 501 267 L 767 323" stroke-miterlimit="10" stroke-dasharray="3"/></g><g transform="translate(-30,-6) scale(1,1)"><path fill="none" stroke="#000000" d="M 756.188111925277 325.02560515887507 L 767 323 L 757.9225214810864 316.7871597687804" stroke-miterlimit="10"/></g><g transform="translate(-30,-6) scale(1,1)"><g><path fill="none" stroke="none"/><text fill="#000000" stroke="none" font-family="Arial" font-size="13px" font-style="normal" font-weight="normal" text-decoration="none" x="583.5" y="283.5">«include»</text></g></g><g transform="translate(-30,-6) scale(1,1)"><path fill="none" stroke="#000000" d="M 577 337 L 767 337" stroke-miterlimit="10" stroke-dasharray="3"/></g><g transform="translate(-30,-6) scale(1,1)"><path fill="none" stroke="#000000" d="M 756.8373251423759 341.209517756016 L 767 337 L 756.8373251423758 332.790482243984" stroke-miterlimit="10"/></g><g transform="translate(-30,-6) scale(1,1)"><g><path fill="none" stroke="none"/><text fill="#000000" stroke="none" font-family="Arial" font-size="13px" font-style="normal" font-weight="normal" text-decoration="none" x="631.5" y="331.5">«include»</text></g></g><g transform="translate(-30,-6) scale(1,1)"><path fill="none" stroke="#000000" d="M 599 383 L 767 350" stroke-miterlimit="10" stroke-dasharray="3"/></g><g transform="translate(-30,-6) scale(1,1)"><path fill="none" stroke="#000000" d="M 757.8392520623239 356.0893921882535 L 767 350 L 756.2165225029102 347.82822352214697" stroke-miterlimit="10"/></g><g transform="translate(-30,-6) scale(1,1)"><g><path fill="none" stroke="none"/><text fill="#000000" stroke="none" font-family="Arial" font-size="13px" font-style="normal" font-weight="normal" text-decoration="none" x="631.5" y="372.5">«include»</text></g></g><g transform="translate(-30,-6) scale(1,1)"><path fill="#ffffff" stroke="none" d="M 90.94206516335227 129.68 C 90.94206516335227 124.886167936 94.82790748829773 121 99.621337890625 121 C 104.41476829295227 121 108.30061061789773 124.886167936 108.30061061789773 129.68 C 108.30061061789773 134.47383206400002 104.41476829295227 138.36 99.621337890625 138.36 C 94.82790748829773 138.36 90.94206516335227 134.47383206400002 90.94206516335227 129.68 Z"/></g><g transform="translate(-30,-6) scale(1,1)"><path fill="none" stroke="#000000" d="M 90.94206516335227 129.68 C 90.94206516335227 124.886167936 94.82790748829773 121 99.621337890625 121 C 104.41476829295227 121 108.30061061789773 124.886167936 108.30061061789773 129.68 C 108.30061061789773 134.47383206400002 104.41476829295227 138.36 99.621337890625 138.36 C 94.82790748829773 138.36 90.94206516335227 134.47383206400002 90.94206516335227 129.68 Z" stroke-miterlimit="10"/></g><g transform="translate(-30,-6) scale(1,1)"><path fill="none" stroke="#000000" d="M 99.621337890625 138.36 L 99.621337890625 155.64" stroke-miterlimit="10"/></g><g transform="translate(-30,-6) scale(1,1)"><path fill="none" stroke="#000000" d="M 90.43151970880682 144.84 L 108.81115607244318 144.84" stroke-miterlimit="10"/></g><g transform="translate(-30,-6) scale(1,1)"><path fill="none" stroke="#000000" d="M 99.621337890625 155.64 L 86.85770152698863 173" stroke-miterlimit="10"/></g><g transform="translate(-30,-6) scale(1,1)"><path fill="none" stroke="#000000" d="M 99.621337890625 155.64 L 112.38497425426137 173" stroke-miterlimit="10"/></g><g transform="translate(-30,-6) scale(1,1)"><g><path fill="none" stroke="none"/><text fill="#000000" stroke="none" font-family="Arial" font-size="13px" font-style="normal" font-weight="bold" text-decoration="none" x="86.976806640625" y="193.5">user</text></g></g><g transform="translate(-30,-6) scale(1,1)"><path fill="none" stroke="#000000" d="M 128 153 L 313 115" stroke-miterlimit="10"/></g><g transform="translate(-30,-6) scale(1,1)"><path fill="#C0C0C0" stroke="none" d="M 383 176 C 383 166.6111584 426.2045168 159 479.5 159 C 532.7954832 159 576 166.6111584 576 176 C 576 185.3888416 532.7954832 193 479.5 193 C 426.2045168 193 383 185.3888416 383 176 Z" opacity="0.2"/></g><g transform="translate(-30,-6) scale(1,1)"><path fill="#ffffff" stroke="none" d="M 376 169 C 376 159.6111584 419.2045168 152 472.5 152 C 525.7954832 152 569 159.6111584 569 169 C 569 178.3888416 525.7954832 186 472.5 186 C 419.2045168 186 376 178.3888416 376 169 Z"/></g><g transform="translate(-30,-6) scale(1,1)"><path fill="none" stroke="#000000" d="M 376 169 C 376 159.6111584 419.2045168 152 472.5 152 C 525.7954832 152 569 159.6111584 569 169 C 569 178.3888416 525.7954832 186 472.5 186 C 419.2045168 186 376 178.3888416 376 169 Z" stroke-miterlimit="10"/></g><g transform="translate(-30,-6) scale(1,1)"><g><path fill="none" stroke="none"/><text fill="#000000" stroke="none" font-family="Arial" font-size="13px" font-style="normal" font-weight="bold" text-decoration="none" x="414.32373046875" y="176">gestion de son profil</text></g></g><g transform="translate(-30,-6) scale(1,1)"><path fill="none" stroke="#000000" d="M 128 160 L 375 166" stroke-miterlimit="10"/></g><g transform="translate(-30,-6) scale(1,1)"><path fill="#ffffff" stroke="none" d="M 90.94206516335227 33.68 C 90.94206516335227 28.886167936 94.82790748829773 25 99.621337890625 25 C 104.41476829295227 25 108.30061061789773 28.886167936 108.30061061789773 33.68 C 108.30061061789773 38.473832064 104.41476829295227 42.36 99.621337890625 42.36 C 94.82790748829773 42.36 90.94206516335227 38.473832064 90.94206516335227 33.68 Z"/></g><g transform="translate(-30,-6) scale(1,1)"><path fill="none" stroke="#000000" d="M 90.94206516335227 33.68 C 90.94206516335227 28.886167936 94.82790748829773 25 99.621337890625 25 C 104.41476829295227 25 108.30061061789773 28.886167936 108.30061061789773 33.68 C 108.30061061789773 38.473832064 104.41476829295227 42.36 99.621337890625 42.36 C 94.82790748829773 42.36 90.94206516335227 38.473832064 90.94206516335227 33.68 Z" stroke-miterlimit="10"/></g><g transform="translate(-30,-6) scale(1,1)"><path fill="none" stroke="#000000" d="M 99.621337890625 42.36 L 99.621337890625 59.64" stroke-miterlimit="10"/></g><g transform="translate(-30,-6) scale(1,1)"><path fill="none" stroke="#000000" d="M 90.43151970880682 48.84 L 108.81115607244318 48.84" stroke-miterlimit="10"/></g><g transform="translate(-30,-6) scale(1,1)"><path fill="none" stroke="#000000" d="M 99.621337890625 59.64 L 86.85770152698863 77" stroke-miterlimit="10"/></g><g transform="translate(-30,-6) scale(1,1)"><path fill="none" stroke="#000000" d="M 99.621337890625 59.64 L 112.38497425426137 77" stroke-miterlimit="10"/></g><g transform="translate(-30,-6) scale(1,1)"><g><path fill="none" stroke="none"/><text fill="#000000" stroke="none" font-family="Arial" font-size="13px" font-style="normal" font-weight="bold" text-decoration="none" x="79.03271484375" y="97.5">visiteur</text></g></g><g transform="translate(-30,-6) scale(1,1)"><path fill="none" stroke="#000000" d="M 128 66 L 287 84" stroke-miterlimit="10"/></g><g transform="translate(-30,-6) scale(1,1)"><path fill="none" stroke="#000000" d="M 128 60 L 319 40" stroke-miterlimit="10"/></g><g transform="translate(-30,-6) scale(1,1)"><path fill="none" stroke="#000000" d="M 510 187 L 793 319" stroke-miterlimit="10" stroke-dasharray="3"/></g><g transform="translate(-30,-6) scale(1,1)"><path fill="none" stroke="#000000" d="M 782.0105182653318 318.51907255911675 L 793 319 L 785.5693299983976 310.8891958889832" stroke-miterlimit="10"/></g><g transform="translate(-30,-6) scale(1,1)"><g><path fill="none" stroke="none"/><text fill="#000000" stroke="none" font-family="Arial" font-size="13px" font-style="normal" font-weight="normal" text-decoration="none" x="623.5" y="236.5">«include»</text></g></g><g transform="translate(-30,-6) scale(1,1)"><path fill="none" stroke="#000000" d="M 99 543 L 231 541" stroke-miterlimit="10"/></g><g transform="translate(-30,-6) scale(1,1)"><path fill="#C0C0C0" stroke="none" d="M 295 608 C 295 598.6111584 350.2928272 591 418.5 591 C 486.7071728 591 542 598.6111584 542 608 C 542 617.3888416 486.7071728 625 418.5 625 C 350.2928272 625 295 617.3888416 295 608 Z" opacity="0.2"/></g><g transform="translate(-30,-6) scale(1,1)"><path fill="#ffffff" stroke="none" d="M 288 601 C 288 591.6111584 343.2928272 584 411.5 584 C 479.7071728 584 535 591.6111584 535 601 C 535 610.3888416 479.7071728 618 411.5 618 C 343.2928272 618 288 610.3888416 288 601 Z"/></g><g transform="translate(-30,-6) scale(1,1)"><path fill="none" stroke="#000000" d="M 288 601 C 288 591.6111584 343.2928272 584 411.5 584 C 479.7071728 584 535 591.6111584 535 601 C 535 610.3888416 479.7071728 618 411.5 618 C 343.2928272 618 288 610.3888416 288 601 Z" stroke-miterlimit="10"/></g><g transform="translate(-30,-6) scale(1,1)"><g><path fill="none" stroke="none"/><text fill="#000000" stroke="none" font-family="Arial" font-size="13px" font-style="normal" font-weight="bold" text-decoration="none" x="337.4228515625" y="608">statistiques de dashboard</text></g></g><g transform="translate(-30,-6) scale(1,1)"><path fill="none" stroke="#000000" d="M 99 547 L 306 583" stroke-miterlimit="10"/></g></g></svg>